<?xml version="1.0" encoding="UTF-8"?>
<!DOCTYPE svg PUBLIC "-//W3C//DTD SVG 1.1//EN" "http://www.w3.org/Graphics/SVG/1.1/DTD/svg11.dtd">
<svg xmlns="http://www.w3.org/2000/svg" version="1.1" width="512px" height="512px" style="shape-rendering:geometricPrecision; text-rendering:geometricPrecision; image-rendering:optimizeQuality; fill-rule:evenodd; clip-rule:evenodd" xmlns:xlink="http://www.w3.org/1999/xlink">
<g><path style="opacity:0.999" fill="#34df8b" d="M 95.5,-0.5 C 163.833,-0.5 232.167,-0.5 300.5,-0.5C 300.333,34.5016 300.5,69.5016 301,104.5C 302.561,127.393 314.394,141.893 336.5,148C 374.475,149.443 412.475,149.943 450.5,149.5C 450.667,258.501 450.5,367.501 450,476.5C 444.984,494.682 433.484,506.348 415.5,511.5C 308.833,511.5 202.167,511.5 95.5,511.5C 77.5069,506.34 66.0069,494.673 61,476.5C 60.3333,329.167 60.3333,181.833 61,34.5C 66.0157,16.3183 77.5157,4.65165 95.5,-0.5 Z M 165.5,210.5 C 225.501,210.333 285.501,210.5 345.5,211C 354.441,211.773 359.108,216.607 359.5,225.5C 359.108,234.393 354.441,239.227 345.5,240C 285.5,240.667 225.5,240.667 165.5,240C 152.214,236.927 148.381,229.094 154,216.5C 157.308,213.265 161.141,211.265 165.5,210.5 Z M 165.5,270.5 C 225.501,270.333 285.501,270.5 345.5,271C 354.441,271.773 359.108,276.607 359.5,285.5C 359.108,294.393 354.441,299.227 345.5,300C 285.5,300.667 225.5,300.667 165.5,300C 152.214,296.927 148.381,289.094 154,276.5C 157.308,273.265 161.141,271.265 165.5,270.5 Z M 165.5,330.5 C 225.501,330.333 285.501,330.5 345.5,331C 354.441,331.773 359.108,336.607 359.5,345.5C 359.108,354.393 354.441,359.227 345.5,360C 285.5,360.667 225.5,360.667 165.5,360C 152.214,356.927 148.381,349.094 154,336.5C 157.308,333.265 161.141,331.265 165.5,330.5 Z M 165.5,390.5 C 205.501,390.333 245.501,390.5 285.5,391C 292.038,391.346 296.538,394.513 299,400.5C 300.79,411.433 296.29,417.933 285.5,420C 245.5,420.667 205.5,420.667 165.5,420C 152.214,416.927 148.381,409.094 154,396.5C 157.308,393.265 161.141,391.265 165.5,390.5 Z"/></g>
<g><path style="opacity:0.994" fill="#33de8b" d="M 330.5,7.5 C 367.965,44.4652 405.299,81.6319 442.5,119C 408.167,119.667 373.833,119.667 339.5,119C 335.333,117.5 332.5,114.667 331,110.5C 330.5,76.1683 330.333,41.835 330.5,7.5 Z"/></g>
</svg>
